<?xml version="1.0" encoding="UTF-8"?>
<svg version="1.1" xmlns="http://www.w3.org/2000/svg" width="1024" height="1024">
<path d="M0 0 C337.92 0 675.84 0 1024 0 C1024 337.92 1024 675.84 1024 1024 C686.08 1024 348.16 1024 0 1024 C0 686.08 0 348.16 0 0 Z " fill="#192F59" transform="translate(0,0)"/>
<path d="M0 0 C3.05309216 0.517577 6.12276253 0.89912577 9.19189453 1.30908203 C26.31526829 4.14807481 42.05619943 10.12266738 58.19189453 16.37158203 C58.92182617 16.64728027 59.65175781 16.92297852 60.40380859 17.20703125 C91.499561 28.98219992 123.85935312 51.77253234 145.19189453 77.37158203 C146.30564453 78.48533203 146.30564453 78.48533203 147.44189453 79.62158203 C153.67626748 85.85595498 159.37290176 92.29742879 164.30908203 99.60986328 C165.7203882 101.67997419 167.15591678 103.70809436 168.63720703 105.72705078 C173.74618063 112.70246946 178.22300542 119.67107436 182.19189453 127.37158203 C183.42049186 129.60106254 184.64967708 131.83021916 185.87939453 134.05908203 C192.19189453 145.80424243 192.19189453 145.80424243 192.19189453 151.37158203 C192.85189453 151.37158203 193.51189453 151.37158203 194.19189453 151.37158203 C195.10440085 154.10910098 196.01562521 156.84698745 196.92236328 159.58642578 C197.80286988 162.21169007 198.69905818 164.82630483 199.61767578 167.43798828 C211.8037814 202.42980411 216.9227693 240.36661921 211.50830078 277.20556641 C211.17117517 279.51342015 210.86831784 281.82443434 210.56689453 284.13720703 C208.32102223 300.76649802 205.21472088 317.66155601 199.19189453 333.37158203 C198.93069824 334.06864258 198.66950195 334.76570313 198.40039062 335.48388672 C186.93749605 365.92923345 170.81074673 393.03850352 149.19189453 417.37158203 C148.75167969 417.87351074 148.31146484 418.37543945 147.85791016 418.89257812 C142.55126284 424.92937363 137.00608439 430.63998429 131.12939453 436.12158203 C130.56881348 436.6476001 130.00823242 437.17361816 129.43066406 437.71557617 C125.43860793 441.37158203 125.43860793 441.37158203 123.19189453 441.37158203 C123.19189453 442.03158203 123.19189453 442.69158203 123.19189453 443.37158203 C121.76513672 444.69335938 121.76513672 444.69335938 119.73876953 446.20751953 C118.9843457 446.77132324 118.22992187 447.33512695 117.45263672 447.91601562 C116.6240918 448.52010254 115.79554688 449.12418945 114.94189453 449.74658203 C114.09014648 450.37000488 113.23839844 450.99342773 112.36083984 451.63574219 C103.31873364 458.15181543 93.87407264 463.86676183 84.19189453 469.37158203 C83.52738281 469.75540039 82.86287109 470.13921875 82.17822266 470.53466797 C72.32185786 476.2013085 62.04025147 480.44796996 51.43212891 484.50488281 C49.54483232 485.23503788 47.6712544 486.00051038 45.80126953 486.77392578 C23.61315056 495.86408447 -1.73141882 501.50868009 -25.74951172 501.53955078 C-26.67545639 501.54287918 -27.60140106 501.54620758 -28.55540466 501.54963684 C-30.50592558 501.55467059 -32.45645501 501.55704627 -34.40698242 501.55688477 C-37.33836685 501.55905813 -40.26936616 501.57721609 -43.20068359 501.59619141 C-54.25411757 501.62937084 -64.88162323 501.08359881 -75.80810547 499.37158203 C-76.66009521 499.25113525 -77.51208496 499.13068848 -78.38989258 499.0065918 C-87.35127253 497.72897541 -96.18436692 495.93106147 -104.99560547 493.87158203 C-105.86854248 493.67008545 -106.74147949 493.46858887 -107.64086914 493.26098633 C-112.64913289 492.0536327 -117.10781209 490.46682604 -121.80810547 488.37158203 C-123.88213067 487.71635516 -125.96574044 487.09064547 -128.05810547 486.49658203 C-134.27577595 484.61501167 -139.98256288 482.22768462 -145.80810547 479.37158203 C-146.42089355 479.07735352 -147.03368164 478.783125 -147.66503906 478.47998047 C-155.52982855 474.70226825 -163.08891848 470.77008856 -170.37451172 465.94189453 C-172.59793254 464.50719923 -174.83480997 463.2735712 -177.18310547 462.05908203 C-183.57206735 458.57937958 -189.14209181 453.89639061 -194.80810547 449.37158203 C-195.72720703 448.64841797 -196.64630859 447.92525391 -197.59326172 447.18017578 C-207.45402298 439.29447127 -217.21930302 430.84116502 -225.31201172 421.11376953 C-226.84485536 419.32878711 -228.47611687 417.73954402 -230.18310547 416.12158203 C-235.00888245 411.36043599 -238.86308511 405.86405987 -242.80810547 400.37158203 C-243.55318359 399.33646484 -244.29826172 398.30134766 -245.06591797 397.23486328 C-260.06243246 375.99415547 -271.65436645 353.40200206 -279.9909668 328.78393555 C-280.53138109 327.18852664 -281.07800008 325.59520468 -281.63110352 324.00415039 C-283.20131555 319.43321806 -284.43110202 314.9352852 -285.37060547 310.18408203 C-286.02297706 306.90010976 -286.66366415 303.77697515 -287.7878418 300.62182617 C-289.77606675 294.28795712 -290.20222998 287.57717591 -290.93310547 280.99658203 C-291.06567749 279.80391724 -291.06567749 279.80391724 -291.20092773 278.5871582 C-298.69853358 209.53607071 -279.83807009 144.63291386 -236.51733398 90.45532227 C-233.69864604 87.01902723 -230.76303767 83.69074223 -227.80810547 80.37158203 C-226.95087891 79.39833984 -226.09365234 78.42509766 -225.21044922 77.42236328 C-214.4710541 65.49159311 -202.83701791 54.75973922 -189.80810547 45.37158203 C-189.19741211 44.93104492 -188.58671875 44.49050781 -187.95751953 44.03662109 C-157.87147421 22.50729765 -124.314104 7.14814463 -87.80810547 0.37158203 C-87.13102539 0.23333008 -86.45394531 0.09507812 -85.75634766 -0.04736328 C-58.48349297 -5.47254273 -27.34791464 -4.70137684 0 0 Z " fill="#192F59" transform="translate(551.80810546875,262.62841796875)"/>
<path d="M0 0 C3.05309216 0.517577 6.12276253 0.89912577 9.19189453 1.30908203 C26.31526829 4.14807481 42.05619943 10.12266738 58.19189453 16.37158203 C58.92182617 16.64728027 59.65175781 16.92297852 60.40380859 17.20703125 C91.499561 28.98219992 123.85935312 51.77253234 145.19189453 77.37158203 C146.30564453 78.48533203 146.30564453 78.48533203 147.44189453 79.62158203 C153.67626748 85.85595498 159.37290176 92.29742879 164.30908203 99.60986328 C165.7203882 101.67997419 167.15591678 103.70809436 168.63720703 105.72705078 C173.74618063 112.70246946 178.22300542 119.67107436 182.19189453 127.37158203 C183.42049186 129.60106254 184.64967708 131.83021916 185.87939453 134.05908203 C192.19189453 145.80424243 192.19189453 145.80424243 192.19189453 151.37158203 C192.85189453 151.37158203 193.51189453 151.37158203 194.19189453 151.37158203 C195.10440085 154.10910098 196.01562521 156.84698745 196.92236328 159.58642578 C197.80286988 162.21169007 198.69905818 164.82630483 199.61767578 167.43798828 C211.8037814 202.42980411 216.9227693 240.36661921 211.50830078 277.20556641 C211.17117517 279.51342015 210.86831784 281.82443434 210.56689453 284.13720703 C208.32102223 300.76649802 205.21472088 317.66155601 199.19189453 333.37158203 C198.93069824 334.06864258 198.66950195 334.76570313 198.40039062 335.48388672 C186.93749605 365.92923345 170.81074673 393.03850352 149.19189453 417.37158203 C148.75167969 417.87351074 148.31146484 418.37543945 147.85791016 418.89257812 C142.55126284 424.92937363 137.00608439 430.63998429 131.12939453 436.12158203 C130.56881348 436.6476001 130.00823242 437.17361816 129.43066406 437.71557617 C125.43860793 441.37158203 125.43860793 441.37158203 123.19189453 441.37158203 C123.19189453 442.03158203 123.19189453 442.69158203 123.19189453 443.37158203 C121.76513672 444.69335938 121.76513672 444.69335938 119.73876953 446.20751953 C118.9843457 446.77132324 118.22992187 447.33512695 117.45263672 447.91601562 C116.6240918 448.52010254 115.79554688 449.12418945 114.94189453 449.74658203 C114.09014648 450.37000488 113.23839844 450.99342773 112.36083984 451.63574219 C103.31873364 458.15181543 93.87407264 463.86676183 84.19189453 469.37158203 C83.52738281 469.75540039 82.86287109 470.13921875 82.17822266 470.53466797 C72.32185786 476.2013085 62.04025147 480.44796996 51.43212891 484.50488281 C49.54483232 485.23503788 47.6712544 486.00051038 45.80126953 486.77392578 C23.61315056 495.86408447 -1.73141882 501.50868009 -25.74951172 501.53955078 C-26.67545639 501.54287918 -27.60140106 501.54620758 -28.55540466 501.54963684 C-30.50592558 501.55467059 -32.45645501 501.55704627 -34.40698242 501.55688477 C-37.33836685 501.55905813 -40.26936616 501.57721609 -43.20068359 501.59619141 C-54.25411757 501.62937084 -64.88162323 501.08359881 -75.80810547 499.37158203 C-76.66009521 499.25113525 -77.51208496 499.13068848 -78.38989258 499.0065918 C-87.35127253 497.72897541 -96.18436692 495.93106147 -104.99560547 493.87158203 C-105.86854248 493.67008545 -106.74147949 493.46858887 -107.64086914 493.26098633 C-112.64913289 492.0536327 -117.10781209 490.46682604 -121.80810547 488.37158203 C-123.88213067 487.71635516 -125.96574044 487.09064547 -128.05810547 486.49658203 C-134.27577595 484.61501167 -139.98256288 482.22768462 -145.80810547 479.37158203 C-146.42089355 479.07735352 -147.03368164 478.783125 -147.66503906 478.47998047 C-155.52982855 474.70226825 -163.08891848 470.77008856 -170.37451172 465.94189453 C-172.59793254 464.50719923 -174.83480997 463.2735712 -177.18310547 462.05908203 C-183.57206735 458.57937958 -189.14209181 453.89639061 -194.80810547 449.37158203 C-195.72720703 448.64841797 -196.64630859 447.92525391 -197.59326172 447.18017578 C-207.45402298 439.29447127 -217.21930302 430.84116502 -225.31201172 421.11376953 C-226.84485536 419.32878711 -228.47611687 417.73954402 -230.18310547 416.12158203 C-235.00888245 411.36043599 -238.86308511 405.86405987 -242.80810547 400.37158203 C-243.55318359 399.33646484 -244.29826172 398.30134766 -245.06591797 397.23486328 C-260.06243246 375.99415547 -271.65436645 353.40200206 -279.9909668 328.78393555 C-280.53138109 327.18852664 -281.07800008 325.59520468 -281.63110352 324.00415039 C-283.20131555 319.43321806 -284.43110202 314.9352852 -285.37060547 310.18408203 C-286.02297706 306.90010976 -286.66366415 303.77697515 -287.7878418 300.62182617 C-289.77606675 294.28795712 -290.20222998 287.57717591 -290.93310547 280.99658203 C-291.06567749 279.80391724 -291.06567749 279.80391724 -291.20092773 278.5871582 C-298.69853358 209.53607071 -279.83807009 144.63291386 -236.51733398 90.45532227 C-233.69864604 87.01902723 -230.76303767 83.69074223 -227.80810547 80.37158203 C-226.95087891 79.39833984 -226.09365234 78.42509766 -225.21044922 77.42236328 C-214.4710541 65.49159311 -202.83701791 54.75973922 -189.80810547 45.37158203 C-189.19741211 44.93104492 -188.58671875 44.49050781 -187.95751953 44.03662109 C-157.87147421 22.50729765 -124.314104 7.14814463 -87.80810547 0.37158203 C-87.13102539 0.23333008 -86.45394531 0.09507812 -85.75634766 -0.04736328 C-58.48349297 -5.47254273 -27.34791464 -4.70137684 0 0 Z M-85.80810547 9.37158203 C-86.78021973 9.57557617 -87.75233398 9.77957031 -88.75390625 9.98974609 C-107.89505442 14.06409739 -126.24567626 19.6573996 -143.80810547 28.37158203 C-144.94505859 28.91556641 -146.08201172 29.45955078 -147.25341797 30.02001953 C-155.43360522 33.99325334 -163.16347287 38.45176897 -170.80810547 43.37158203 C-172.33951172 44.34611328 -172.33951172 44.34611328 -173.90185547 45.34033203 C-184.15945831 52.00248645 -193.25478307 59.75289484 -202.24169922 68.02392578 C-204.48369503 70.07482301 -206.75601576 72.07635737 -209.05810547 74.05908203 C-216.47197868 80.54058174 -222.69268945 87.65474775 -228.80810547 95.37158203 C-229.62666016 96.39638672 -230.44521484 97.42119141 -231.28857422 98.47705078 C-239.47006604 108.83147817 -246.37217409 119.85849712 -253.12060547 131.18408203 C-253.52923828 131.8650293 -253.93787109 132.54597656 -254.35888672 133.24755859 C-256.85907985 137.49747569 -258.97986473 141.80713063 -260.91479492 146.34277344 C-261.758808 148.25962195 -262.68922198 150.0914675 -263.68310547 151.93408203 C-271.71984298 167.94477005 -276.32791996 185.94970909 -280.12060547 203.37158203 C-280.27996582 204.08741455 -280.43932617 204.80324707 -280.60351562 205.54077148 C-288.38459622 243.1979416 -284.03587373 287.31002817 -271.80810547 323.37158203 C-271.40011719 324.64775391 -271.40011719 324.64775391 -270.98388672 325.94970703 C-262.76607621 351.38401647 -250.844597 373.95078754 -234.80810547 395.37158203 C-234.04626953 396.40283203 -233.28443359 397.43408203 -232.49951172 398.49658203 C-226.43759507 406.61267854 -219.82298305 414.07009045 -212.80810547 421.37158203 C-211.91994141 422.30099609 -211.03177734 423.23041016 -210.11669922 424.18798828 C-207.04707068 427.36945834 -207.04707068 427.36945834 -203.80810547 430.37158203 C-203.14810547 430.37158203 -202.48810547 430.37158203 -201.80810547 430.37158203 C-201.31310547 431.85658203 -201.31310547 431.85658203 -200.80810547 433.37158203 C-177.20012381 456.17204721 -144.69688277 471.68882985 -113.89257812 481.68701172 C-111.08167059 482.61015352 -108.2906546 483.58914445 -105.49560547 484.55908203 C-94.46622981 488.21029018 -83.31819479 489.99984874 -71.80810547 491.37158203 C-70.61459473 491.54197998 -69.42108398 491.71237793 -68.19140625 491.88793945 C-63.48012477 492.47485164 -58.81277234 492.53342455 -54.06982422 492.53955078 C-53.14957962 492.54287918 -52.22933502 492.54620758 -51.28120422 492.54963684 C-49.33729548 492.55467779 -47.39337816 492.55704605 -45.44946289 492.55688477 C-42.54216329 492.5590474 -39.6352588 492.57716729 -36.72802734 492.59619141 C-20.85702166 492.64520233 -5.14488006 491.7598926 10.37939453 488.24658203 C11.33023926 488.03340332 12.28108398 487.82022461 13.26074219 487.60058594 C45.6684137 480.01739246 78.92866536 466.06768657 105.19189453 445.37158203 C107.29429054 443.80670037 109.39851726 442.24427578 111.50439453 440.68408203 C117.50009717 436.21229812 117.50009717 436.21229812 123.19189453 431.37158203 C123.19189453 430.71158203 123.19189453 430.05158203 123.19189453 429.37158203 C123.78719971 429.10079834 124.38250488 428.83001465 124.99584961 428.55102539 C127.16593012 427.3855269 128.59174077 426.22965237 130.32861328 424.50048828 C130.90111816 423.93217285 131.47362305 423.36385742 132.06347656 422.77832031 C132.66272949 422.16972168 133.26198242 421.56112305 133.87939453 420.93408203 C134.50442871 420.30228027 135.12946289 419.67047852 135.7734375 419.01953125 C140.94249274 413.73569709 145.68998966 408.23723089 150.19189453 402.37158203 C150.64773926 401.78683105 151.10358398 401.20208008 151.57324219 400.59960938 C162.66306317 386.35275204 171.94753546 371.41765002 180.19189453 355.37158203 C180.67529297 354.45634766 181.15869141 353.54111328 181.65673828 352.59814453 C187.21981635 341.97563596 187.21981635 341.97563596 189.19189453 330.37158203 C189.85189453 330.37158203 190.51189453 330.37158203 191.19189453 330.37158203 C198.36264852 303.17744648 203.56676239 278.05983455 203.5625 249.85986328 C203.56687053 246.63927153 203.60333646 243.42005813 203.64111328 240.19970703 C203.71610396 226.1593612 202.17053855 213.07646248 199.19189453 199.37158203 C198.88568131 197.87436908 198.58144488 196.37674996 198.27954102 194.87866211 C196.44880125 186.00519618 193.68513434 177.50206229 190.75439453 168.93408203 C190.38290283 167.84385742 190.01141113 166.75363281 189.62866211 165.63037109 C187.27468385 158.92289241 184.49149917 152.66113715 181.19189453 146.37158203 C180.52331671 145.02224742 179.85897614 143.67080163 179.19970703 142.31689453 C172.59567221 128.88317843 165.66986837 115.35497545 155.67236328 104.09814453 C154.17673358 102.35390092 152.84427076 100.54992687 151.50439453 98.68408203 C147.97093365 93.89531268 143.90526879 89.60618564 139.85595703 85.25830078 C137.7179535 82.94160781 135.65937363 80.59408092 133.62939453 78.18408203 C127.21397649 70.80863707 119.48972802 64.67418985 111.89892578 58.55908203 C110.17119955 57.16293962 108.45842071 55.74795212 106.76611328 54.30908203 C100.61230011 49.15236788 94.02156204 45.21420824 87.01074219 41.37597656 C84.02670384 39.72814653 81.08091236 38.01425513 78.12939453 36.30908203 C76.52163957 35.38254481 74.91299363 34.4573874 73.29418945 33.55029297 C71.64948982 32.62814574 70.01333685 31.69075132 68.38061523 30.74755859 C60.33917527 26.22597178 52.28280973 23.04033046 43.50439453 20.24658203 C42.16947139 19.81524658 40.8346746 19.3835199 39.5 18.95141602 C36.89439407 18.11205298 34.28588517 17.28292955 31.67382812 16.46386719 C29.59628058 15.81213898 27.5204217 15.15492778 25.44824219 14.48632812 C13.4600378 10.6323571 1.41026405 8.93651347 -11.1003418 7.65380859 C-12.75325079 7.48152811 -14.4048148 7.2944868 -16.05297852 7.08154297 C-38.45058077 4.35185813 -63.7744873 4.53651073 -85.80810547 9.37158203 Z " fill="#EBF2F5" transform="translate(551.80810546875,262.62841796875)"/>
<path d="M0 0 C9.14550192 8.38132251 13.95793694 22.02611478 19.05273438 33.07958984 C24.68751801 45.24665616 31.22351435 57.01208366 37.5078125 68.8515625 C37.90645508 69.60300537 38.30509766 70.35444824 38.71582031 71.12866211 C39.46158338 72.53364328 40.20825475 73.9381429 40.95605469 75.34204102 C42.64208505 78.51665661 44.29327421 81.70168684 45.8828125 84.92578125 C48.44066631 90.07219315 51.22925549 95.09102359 54 100.125 C64 118.29331683 64 118.29331683 64 122.125 C64.66 122.125 65.32 122.125 66 122.125 C66.39832031 122.93324219 66.79664063 123.74148438 67.20703125 124.57421875 C67.73683594 125.64285156 68.26664063 126.71148438 68.8125 127.8125 C69.33457031 128.86824219 69.85664062 129.92398438 70.39453125 131.01171875 C71.39106472 132.94416931 72.44237823 134.85058811 73.57421875 136.70703125 C75 139.125 75 139.125 75.95703125 141.5390625 C77.24360841 144.72900287 78.93266537 147.5419487 80.6875 150.5 C84.95724969 157.8313543 88.50138872 165.4041881 92 173.125 C107.15392233 206.7593004 107.15392233 206.7593004 136 228.125 C139.30599743 229.24360461 142.62385822 230.24145651 146 231.125 C146 231.785 146 232.445 146 233.125 C130.07870666 236.56512949 110.60278118 238.54558185 96 230.125 C95.04480469 229.60550781 94.08960938 229.08601562 93.10546875 228.55078125 C78.11257727 219.75194343 68.47932327 205.58227154 63.15625 189.21875 C57.62977527 174.43169599 49.04726956 160.52062894 41.43920898 146.73535156 C36.7614569 138.25112336 32.18619782 129.72025555 27.70117188 121.1328125 C27.08918945 119.96492187 27.08918945 119.96492187 26.46484375 118.7734375 C26.06507324 118.00999023 25.66530273 117.24654297 25.25341797 116.45996094 C23.54840192 113.28372925 21.74263836 110.16726703 19.92016602 107.05712891 C19 105.125 19 105.125 19 102.125 C18.34 102.125 17.68 102.125 17 102.125 C16.48953125 101.00867188 15.9790625 99.89234375 15.453125 98.7421875 C7.96641686 82.55835583 -0.43317468 66.85995524 -9.59765625 51.5625 C-11 49.125 -11 49.125 -12.49609375 45.875 C-13.75729694 42.82778026 -13.75729694 42.82778026 -17 42.125 C-17.20625 42.90230469 -17.4125 43.67960937 -17.625 44.48046875 C-19.51629058 49.4934634 -22.23236343 53.86295939 -25 58.4375 C-26.18512436 60.41783201 -27.370018 62.39830211 -28.5546875 64.37890625 C-29.14088867 65.3548877 -29.72708984 66.33086914 -30.33105469 67.33642578 C-32.21776983 70.48886293 -34.0771624 73.65639769 -35.92993164 76.82885742 C-39.90575391 83.63608243 -43.95826466 90.39442752 -48.0625 97.125 C-48.54025879 97.9097168 -49.01801758 98.69443359 -49.51025391 99.50292969 C-49.95159668 100.22383789 -50.39293945 100.94474609 -50.84765625 101.6875 C-51.23961182 102.32816406 -51.63156738 102.96882813 -52.03540039 103.62890625 C-53 105.125 -53 105.125 -54 106.125 C-56.95705321 106.21368299 -59.89065056 106.24020296 -62.84765625 106.22265625 C-64.17729652 106.22053383 -64.17729652 106.22053383 -65.53379822 106.21836853 C-68.37673254 106.21275215 -71.21958931 106.20019691 -74.0625 106.1875 C-75.98502491 106.18248711 -77.90755104 106.17792384 -79.83007812 106.17382812 C-84.55341549 106.16277741 -89.27669458 106.14550183 -94 106.125 C-92.83496187 103.04651302 -91.6086798 100.29050854 -89.78515625 97.55078125 C-89.35211182 96.89287598 -88.91906738 96.2349707 -88.47290039 95.55712891 C-87.7747522 94.5079126 -87.7747522 94.5079126 -87.0625 93.4375 C-83.12255502 87.43619038 -79.2829306 81.38982683 -75.5625 75.25 C-60.70323107 50.78236131 -60.70323107 50.78236131 -54.125 41.625 C-49.51768278 35.15491576 -45.99445563 28.15521086 -42.49609375 21.0390625 C-32.39698539 0.74801325 -32.39698539 0.74801325 -21.9375 -4.375 C-13.37702608 -5.83210194 -7.30207633 -4.56379771 0 0 Z " fill="#F7F9FA" transform="translate(503,397.875)"/>
<path d="M0 0 C0.93765701 -0.00029205 1.87531403 -0.00058411 2.84138489 -0.00088501 C5.90924668 0.00049699 8.9768589 0.01600459 12.04467773 0.03173828 C14.18415698 0.03547243 16.32363794 0.0383175 18.46311951 0.04031372 C24.07069695 0.04791851 29.67816937 0.06753973 35.28570557 0.08972168 C41.01719747 0.11024827 46.74870648 0.11932997 52.48022461 0.12939453 C63.70878616 0.15078875 74.93727006 0.18488636 86.16577148 0.22705078 C86.44971771 0.73861221 86.73366394 1.25017365 87.0262146 1.77723694 C88.33034458 4.12650555 89.63477473 6.47560736 90.93920898 8.82470703 C91.38578857 9.62928345 91.83236816 10.43385986 92.29248047 11.26281738 C95.24219607 16.57419805 98.21015985 21.87446561 101.20483398 27.16064453 C102.16577148 29.22705078 102.16577148 29.22705078 102.16577148 32.22705078 C100.91011383 32.23069641 99.65445618 32.23434204 98.36074829 32.23809814 C86.50249636 32.2751083 74.64450267 32.33294705 62.78644753 32.41095352 C56.69071024 32.45039011 50.5951166 32.48259751 44.49926758 32.49804688 C38.61169085 32.51323831 32.72450912 32.54772877 26.83710861 32.5953598 C24.59579281 32.61014783 22.35442061 32.61809031 20.11305618 32.61893463 C16.96304925 32.62131373 13.81412558 32.64847041 10.66430664 32.68115234 C9.74648407 32.67612198 8.8286615 32.67109161 7.88302612 32.66590881 C0.84870774 32.77814302 -6.27135396 34.11559121 -11.72022057 38.87408829 C-19.24755468 46.97749315 -21.21212906 55.72192565 -21.11157227 66.49267578 C-20.39311315 76.16657599 -16.22456731 84.31932421 -10.83422852 92.22705078 C-10.13297852 93.25830078 -9.43172852 94.28955078 -8.70922852 95.35205078 C-5.31704136 99.28518473 -0.62787572 101.83903536 3.71655273 104.59033203 C4.92891602 105.40050781 4.92891602 105.40050781 6.16577148 106.22705078 C6.16577148 106.55705078 6.16577148 106.88705078 6.16577148 107.22705078 C-8.53686962 108.64988702 -24.00708152 101.56447883 -35.83422852 93.22705078 C-38.60759958 90.79237459 -40.75322724 88.26721976 -42.83422852 85.22705078 C-43.62893555 84.08623047 -43.62893555 84.08623047 -44.43969727 82.92236328 C-52.87422484 69.88529103 -54.59467566 56.37727972 -52.39672852 41.20751953 C-48.69502698 26.88656173 -38.01695185 14.21489824 -25.83422852 6.22705078 C-25.2605957 5.83775391 -24.68696289 5.44845703 -24.09594727 5.04736328 C-16.66764487 0.3683866 -8.54775387 -0.07102983 0 0 Z " fill="#F8FAFB" transform="translate(423.834228515625,529.77294921875)"/>
<path d="M0 0 C11.22 0 22.44 0 34 0 C34 31.02 34 62.04 34 94 C23.27498327 91.31874582 13.65893574 78.10594619 8 69 C6.90363483 66.69186281 5.86220669 64.35689135 4.875 62 C4.37742187 60.824375 3.87984375 59.64875 3.3671875 58.4375 C2.91601562 57.303125 2.46484375 56.16875 2 55 C1.64583008 54.17226074 1.29166016 53.34452148 0.92675781 52.49169922 C-0.3881335 47.53764876 -0.24591899 42.79807614 -0.1953125 37.6953125 C-0.1924826 36.61619598 -0.18965271 35.53707947 -0.18673706 34.42526245 C-0.1755766 30.99172701 -0.1504793 27.55845609 -0.125 24.125 C-0.11496487 21.79167044 -0.10583995 19.45833678 -0.09765625 17.125 C-0.07735569 11.41648371 -0.03819839 5.70853663 0 0 Z " fill="#F9FCFB" transform="translate(615,511)"/>
<path d="M0 0 C6.84658158 3.93025141 12.52504003 9.25554994 14.93359375 16.90625 C15.83535618 27.36435194 15.43642161 35.80097754 8.74609375 44.15625 C2.82799388 50.38066974 -1.86740957 52.1301582 -10.50390625 52.40625 C-18.5201594 52.17493523 -23.89451714 50.66441444 -29.94140625 45.40625 C-33.6118608 41.08806818 -33.6118608 41.08806818 -35.06640625 38.90625 C-35.62328125 38.101875 -36.18015625 37.2975 -36.75390625 36.46875 C-39.40413535 29.275271 -39.02180613 21.54936116 -36.31640625 14.40625 C-33.02986247 7.3424632 -28.86958544 3.53833745 -22.06640625 -0.09375 C-15.38603755 -2.32053957 -6.65776157 -2.37474298 0 0 Z " fill="#F7FAFA" transform="translate(643.06640625,436.09375)"/>
<path d="M0 0 C-0.35298081 2.9008605 -0.88728296 3.89516676 -3.06640625 5.921875 C-3.89011719 6.52515625 -4.71382813 7.1284375 -5.5625 7.75 C-6.38878906 8.36359375 -7.21507812 8.9771875 -8.06640625 9.609375 C-8.70449219 10.06828125 -9.34257812 10.5271875 -10 11 C-9.2236068 14.0745356 -9.2236068 14.0745356 -7 16 C-11.29 19.96 -15.58 23.92 -20 28 C-20.33 27.01 -20.66 26.02 -21 25 C-21.66 24.67 -22.32 24.34 -23 24 C-23 22.68 -23 21.36 -23 20 C-24.65 20.66 -26.3 21.32 -28 22 C-6.19572954 0 -6.19572954 0 0 0 Z " fill="#E4EDF1" transform="translate(367,306)"/>
<path d="M0 0 C11.22 0 22.44 0 34 0 C34 31.02 34 62.04 34 94 C32.68 93.67 31.36 93.34 30 93 C29.67 92.01 29.34 91.02 29 90 C30.32 90 31.64 90 33 90 C33 60.63 33 31.26 33 1 C22.44 1 11.88 1 1 1 C1 16.84 1 32.68 1 49 C0.67 49 0.34 49 0 49 C0 32.83 0 16.66 0 0 Z " fill="#D4DFEB" transform="translate(615,511)"/>
<path d="M0 0 C0.33 0 0.66 0 1 0 C4.17437911 14.75173697 4.35900783 29.08193001 4.1875 44.125 C4.17241189 46.45181416 4.15873085 48.77863789 4.14648438 51.10546875 C4.11383856 56.73719226 4.06397287 62.36854963 4 68 C3.67 68 3.34 68 3 68 C2.98969254 67.45098526 2.97938507 66.90197052 2.96876526 66.33631897 C2.86092053 60.64278719 2.74630551 54.94942079 2.62768555 49.25610352 C2.58426577 47.12885993 2.54259607 45.0015799 2.50268555 42.87426758 C2.44515293 39.82361849 2.38141033 36.77315411 2.31640625 33.72265625 C2.29133751 32.28672874 2.29133751 32.28672874 2.26576233 30.8217926 C2.24581711 29.94095505 2.22587189 29.06011749 2.20532227 28.15258789 C2.18200584 26.9834359 2.18200584 26.9834359 2.15821838 25.79066467 C2.19110881 23.97706647 2.19110881 23.97706647 1 23 C0.84259395 21.29436222 0.74906608 19.58272756 0.68359375 17.87109375 C0.64169922 16.83662109 0.59980469 15.80214844 0.55664062 14.73632812 C0.51732422 13.64771484 0.47800781 12.55910156 0.4375 11.4375 C0.39431641 10.34501953 0.35113281 9.25253906 0.30664062 8.12695312 C0.20017932 5.41810436 0.09816484 2.70916008 0 0 Z " fill="#46566C" transform="translate(751,466)"/>
<path d="M0 0 C-0.226875 1.093125 -0.45375 2.18625 -0.6875 3.3125 C-0.8421875 5.1378125 -0.8421875 5.1378125 -1 7 C-0.01 7.99 0.98 8.98 2 10 C-0.97 11.65 -3.94 13.3 -7 15 C-7 12.69 -7 10.38 -7 8 C-8.65 8 -10.3 8 -12 8 C-4.57142857 0 -4.57142857 0 0 0 Z " fill="#E2E9F0" transform="translate(386,293)"/>
<path d="M0 0 C4.9763962 -0.02512941 9.95275371 -0.04305808 14.92919922 -0.05493164 C16.61442713 -0.0598929 18.29965091 -0.06666403 19.98486328 -0.07543945 C51.68597139 -0.23611889 51.68597139 -0.23611889 62 4 C58.93127586 4.94924243 56.71392621 4.98885357 53.5546875 4.4765625 C52.65814453 4.34290283 51.76160156 4.20924316 50.83789062 4.0715332 C49.86013672 3.92417725 48.88238281 3.77682129 47.875 3.625 C31.98570374 1.40325534 16.0168396 1.25829009 0 1 C0 0.67 0 0.34 0 0 Z " fill="#536279" transform="translate(496,259)"/>
<path d="M0 0 C2.31 1.65 4.62 3.3 7 5 C6.25 10.75 6.25 10.75 4 13 C3.67 13.66 3.34 14.32 3 15 C0.03 12.36 -2.94 9.72 -6 7 C-3.6921509 5.84607545 -1.52769669 5.46562834 1 5 C0.67 3.35 0.34 1.7 0 0 Z " fill="#E3EBEF" transform="translate(667,313)"/>
<path d="M0 0 C1.859375 0.21484375 1.859375 0.21484375 4 1 C5.265625 3.06640625 5.265625 3.06640625 6.25 5.5625 C6.58515625 6.38878906 6.9203125 7.21507812 7.265625 8.06640625 C7.50796875 8.70449219 7.7503125 9.34257812 8 10 C7.01 9.67 6.02 9.34 5 9 C5 8.34 5 7.68 5 7 C3.35 7 1.7 7 0 7 C-0.33 8.32 -0.66 9.64 -1 11 C-2.32 11 -3.64 11 -5 11 C-3.55049545 7.2089881 -1.84827434 3.6125362 0 0 Z " fill="#32455E" transform="translate(486,440)"/>
<path d="M0 0 C1.0625 1.8125 1.0625 1.8125 2 4 C1.67 4.99 1.34 5.98 1 7 C-1.31 7.33 -3.62 7.66 -6 8 C-5.67 6.68 -5.34 5.36 -5 4 C-6.32 4.33 -7.64 4.66 -9 5 C-9 4.34 -9 3.68 -9 3 C-8.34 3 -7.68 3 -7 3 C-7 2.34 -7 1.68 -7 1 C-3.535 0.505 -3.535 0.505 0 0 Z " fill="#F4F9F8" transform="translate(617,734)"/>
<path d="M0 0 C2.97 1.65 5.94 3.3 9 5 C9 5.33 9 5.66 9 6 C2.90218999 6.22084624 -2.21642935 6.01167675 -8 4 C-4.77208445 1.8480563 -3.71599191 1.79913557 0 2 C0 1.34 0 0.68 0 0 Z " fill="#BFCEE2" transform="translate(421,631)"/>
<path d="M0 0 C0.66 0 1.32 0 2 0 C1.34 1.32 0.68 2.64 0 4 C-13.2 4 -26.4 4 -40 4 C-39.67 3.34 -39.34 2.68 -39 2 C-20.19 2.495 -20.19 2.495 -1 3 C-0.67 2.01 -0.34 1.02 0 0 Z " fill="#DCE8F4" transform="translate(449,500)"/>
<path d="M0 0 C0.33 0.66 0.66 1.32 1 2 C0.34 2 -0.32 2 -1 2 C-1.33 3.32 -1.66 4.64 -2 6 C-2.66 6 -3.32 6 -4 6 C-4.33 6.99 -4.66 7.98 -5 9 C-6.62890625 10.38671875 -6.62890625 10.38671875 -8.5625 11.6875 C-9.52349609 12.34298828 -9.52349609 12.34298828 -10.50390625 13.01171875 C-10.99761719 13.33785156 -11.49132812 13.66398438 -12 14 C-12.66 13.01 -13.32 12.02 -14 11 C-12.37982158 9.66081194 -10.75370657 8.3288031 -9.125 7 C-8.22007812 6.2575 -7.31515625 5.515 -6.3828125 4.75 C-4 3 -4 3 -2 3 C-2 2.34 -2 1.68 -2 1 C-1.34 0.67 -0.68 0.34 0 0 Z " fill="#354560" transform="translate(677,703)"/>
<path d="M0 0 C1.32 0.66 2.64 1.32 4 2 C1.19195732 4.96404505 -1.18315774 7.44499019 -5 9 C-5 9.66 -5 10.32 -5 11 C-5.66 11 -6.32 11 -7 11 C-7.33 11.99 -7.66 12.98 -8 14 C-8.99 13.67 -9.98 13.34 -11 13 C-10.62488281 12.56429687 -10.24976563 12.12859375 -9.86328125 11.6796875 C-6.54140223 7.81392401 -3.25357073 3.92342352 0 0 Z " fill="#2C3D5A" transform="translate(699,681)"/>
<path d="M0 0 C1.07610988 3.22832965 0.93935312 3.9001347 0 7 C-0.185625 7.7425 -0.37125 8.485 -0.5625 9.25 C-0.706875 9.8275 -0.85125 10.405 -1 11 C-1.66 11 -2.32 11 -3 11 C-3.33 11.99 -3.66 12.98 -4 14 C-6.5625 15.1875 -6.5625 15.1875 -9 16 C-7.30523158 12.47351217 -5.35497316 9.1232876 -3.375 5.75 C-2.74335937 4.67234375 -2.11171875 3.5946875 -1.4609375 2.484375 C-0.73777344 1.25460937 -0.73777344 1.25460937 0 0 Z " fill="#354360" transform="translate(732,636)"/>
<path d="M0 0 C-1.175625 0.433125 -1.175625 0.433125 -2.375 0.875 C-5.09671632 1.84912254 -5.09671632 1.84912254 -7 4 C-7.99 4 -8.98 4 -10 4 C-10 3.34 -10 2.68 -10 2 C-17.26 2 -24.52 2 -32 2 C-32 1.67 -32 1.34 -32 1 C-31.04746338 0.96241577 -31.04746338 0.96241577 -30.07568359 0.92407227 C-27.17528458 0.80743211 -24.27515651 0.68501607 -21.375 0.5625 C-20.37597656 0.52318359 -19.37695312 0.48386719 -18.34765625 0.44335938 C-0.89013416 -0.30812336 -0.89013416 -0.30812336 0 0 Z " fill="#647289" transform="translate(648,632)"/>
<path d="M0 0 C4.95 0 9.9 0 15 0 C15.33 0.66 15.66 1.32 16 2 C14.12612523 2.3396019 12.25083303 2.67138691 10.375 3 C9.33085937 3.185625 8.28671875 3.37125 7.2109375 3.5625 C4.09425135 3.98715797 1.14069188 4.07545206 -2 4 C-2 3.34 -2 2.68 -2 2 C-1.34 2 -0.68 2 0 2 C0 1.34 0 0.68 0 0 Z " fill="#253B55" transform="translate(406,528)"/>
<path d="M0 0 C7.60975602 -0.44763271 16.11280617 0.55640308 23 4 C23 4.66 23 5.32 23 6 C17.97079064 5.23678133 13.06686041 4.1227089 8.125 2.9375 C7.34125 2.75123047 6.5575 2.56496094 5.75 2.37304688 C3.83290719 1.91715285 1.9163935 1.45882473 0 1 C0 0.67 0 0.34 0 0 Z " fill="#3D4C65" transform="translate(569,266)"/>
<path d="M0 0 C0.33 0 0.66 0 1 0 C1.94405504 4.03793841 2.66578564 7.48707665 0.953125 11.37890625 C-0.28819511 13.32805777 -1.57071536 15.18495688 -3 17 C-4.56393356 13.02623171 -3.36145292 10.18622097 -2.0625 6.25 C-1.68222656 5.07953125 -1.30195313 3.9090625 -0.91015625 2.703125 C-0.60980469 1.81109375 -0.30945313 0.9190625 0 0 Z " fill="#D6DEE8" transform="translate(270,437)"/>
<path d="M0 0 C0.75732422 0.00966797 1.51464844 0.01933594 2.29492188 0.02929688 C3.08060547 0.05443359 3.86628906 0.07957031 4.67578125 0.10546875 C5.87170898 0.12577148 5.87170898 0.12577148 7.09179688 0.14648438 C9.05758092 0.18179786 11.02301707 0.23560428 12.98828125 0.29296875 C9.97795675 3.30329325 7.75924504 3.27116548 3.53515625 3.390625 C1.65570312 3.37322266 1.65570312 3.37322266 -0.26171875 3.35546875 C-1.525 3.34644531 -2.78828125 3.33742188 -4.08984375 3.328125 C-5.0540625 3.31652344 -6.01828125 3.30492187 -7.01171875 3.29296875 C-4.74810376 0.60821609 -3.50571314 -0.07907624 0 0 Z " fill="#1B2D4B" transform="translate(517.01171875,751.70703125)"/>
<path d="M0 0 C2.9882675 2.58323124 4.49429547 5.55535237 6.25 9.0625 C7.06210937 10.65771484 7.06210937 10.65771484 7.890625 12.28515625 C8.25671875 13.18105469 8.6228125 14.07695313 9 15 C8.67 15.66 8.34 16.32 8 17 C7.34 17 6.68 17 6 17 C6 15.35 6 13.7 6 12 C4.68 11.67 3.36 11.34 2 11 C0.80712589 7.12315913 0 4.08378077 0 0 Z " fill="#42506A" transform="translate(550,555)"/>
<path d="M0 0 C0.99 0 1.98 0 3 0 C3.33 0.99 3.66 1.98 4 3 C0.7 6.63 -2.6 10.26 -6 14 C-6.33 13.01 -6.66 12.02 -7 11 C-6.34 11 -5.68 11 -5 11 C-4.34 9.02 -3.68 7.04 -3 5 C-2.34 5 -1.68 5 -1 5 C-0.67 3.35 -0.34 1.7 0 0 Z " fill="#2F3E58" transform="translate(330,330)"/>
<path d="M0 0 C0.33 0 0.66 0 1 0 C1.3077917 3.13837611 1.27813784 4.59343628 -0.53125 7.23828125 C-1.1809375 7.92277344 -1.830625 8.60726562 -2.5 9.3125 C-3.1496875 10.00988281 -3.799375 10.70726562 -4.46875 11.42578125 C-4.9740625 11.94527344 -5.479375 12.46476563 -6 13 C-7.32 12.67 -8.64 12.34 -10 12 C-9.44570313 11.38511719 -8.89140625 10.77023437 -8.3203125 10.13671875 C-7.59585938 9.32847656 -6.87140625 8.52023437 -6.125 7.6875 C-5.40570312 6.88699219 -4.68640625 6.08648438 -3.9453125 5.26171875 C-1.88394498 2.95810917 -1.88394498 2.95810917 0 0 Z " fill="#3C4B60" transform="translate(710,668)"/>
<path d="M0 0 C-4.63636364 1.93181818 -4.63636364 1.93181818 -7 2.375 C-9.22680297 2.92940238 -9.22680297 2.92940238 -11.375 5 C-14.33460826 7.25493962 -16.34210562 7.65973076 -20 8 C-14.92712431 2.31837923 -7.80672374 -2.60224125 0 0 Z " fill="#CBDAE3" transform="translate(414,532)"/>
<path d="M0 0 C0.66 0.99 1.32 1.98 2 3 C1.67 3.33 1.34 3.66 1 4 C0.76807135 5.51469448 0.58784762 7.03754562 0.4375 8.5625 C0.35371094 9.38878906 0.26992188 10.21507812 0.18359375 11.06640625 C0.12300781 11.70449219 0.06242187 12.34257813 0 13 C-0.33 13 -0.66 13 -1 13 C-1.33 16.3 -1.66 19.6 -2 23 C-2.33 23 -2.66 23 -3 23 C-3.32098157 14.64259099 -3.21819111 7.77729519 0 0 Z " fill="#4F5D70" transform="translate(405,577)"/>
<path d="M0 0 C1.03526844 3.31756479 1.03187431 6.10953974 0.75 9.5625 C0.68296875 10.51253906 0.6159375 11.46257813 0.546875 12.44140625 C-0.05649913 15.2643352 -0.77903396 16.22680937 -3 18 C-3.36517527 11.42684522 -2.13619737 6.20514474 0 0 Z " fill="#DAE7EF" transform="translate(374,564)"/>
<path d="M0 0 C0 3.54823932 -0.67734388 4.41927097 -3 7 C-3.99 7.33 -4.98 7.66 -6 8 C-6.33 8.66 -6.66 9.32 -7 10 C-8.9375 10.75 -8.9375 10.75 -11 11 C-11.66 10.34 -12.32 9.68 -13 9 C-11.7315625 8.443125 -11.7315625 8.443125 -10.4375 7.875 C-6.45316122 5.7017243 -3.33363816 3.04761595 0 0 Z " fill="#32485F" transform="translate(655,477)"/>
<path d="M0 0 C0.99 0.33 1.98 0.66 3 1 C1.97435379 3.05129241 0.94812883 5.09797888 -0.125 7.125 C-1.14096182 8.95720802 -1.14096182 8.95720802 -1 11 C-2.65 11.66 -4.3 12.32 -6 13 C-4.31326082 8.50202887 -2.18326108 4.27113698 0 0 Z " fill="#31415C" transform="translate(469,469)"/>
<path d="M0 0 C2 3 2 3 1.75 4.9375 C0.22580645 9.12903226 0.22580645 9.12903226 -1 11 C-3.125 11.75 -3.125 11.75 -5 12 C-3.68938409 7.76570244 -2.05643741 3.92592596 0 0 Z " fill="#394862" transform="translate(738,624)"/>
<path d="M0 0 C2.35119399 3.52679099 2.21443452 5.02879485 2.125 9.1875 C2.10695313 10.27417969 2.08890625 11.36085938 2.0703125 12.48046875 C2.03550781 13.72763672 2.03550781 13.72763672 2 15 C1.34 15 0.68 15 0 15 C0 16.98 0 18.96 0 21 C-0.33 21 -0.66 21 -1 21 C-0.67 14.07 -0.34 7.14 0 0 Z " fill="#405168" transform="translate(270,475)"/>
<path d="M0 0 C0.33 0 0.66 0 1 0 C1.22171552 2.60365928 1.42784859 5.20696493 1.625 7.8125 C1.68945312 8.55048828 1.75390625 9.28847656 1.8203125 10.04882812 C2.2265625 15.66015625 2.2265625 15.66015625 0 19 C-0.66 19 -1.32 19 -2 19 C-1.34 12.73 -0.68 6.46 0 0 Z " fill="#515E76" transform="translate(658,455)"/>
<path d="M0 0 C0.33 0 0.66 0 1 0 C1.36637589 6.35051546 1.36637589 6.35051546 -0.375 9.4375 C-2 11 -2 11 -4 11 C-4 11.99 -4 12.98 -4 14 C-4.66 14 -5.32 14 -6 14 C-4.50829734 9.0276578 -2.39542583 4.58154261 0 0 Z " fill="#D1D9E2" transform="translate(286,397)"/>
<path d="M0 0 C4.62 0 9.24 0 14 0 C13.01 1.485 13.01 1.485 12 3 C9.8359375 3.29296875 9.8359375 3.29296875 7.375 3.1875 C6.55773437 3.16042969 5.74046875 3.13335938 4.8984375 3.10546875 C4.27195312 3.07066406 3.64546875 3.03585937 3 3 C3 2.34 3 1.68 3 1 C2.01 0.67 1.02 0.34 0 0 Z " fill="#1A2C48" transform="translate(424,563)"/>
<path d="M0 0 C7 8.44827586 7 8.44827586 7 12 C4 12 4 12 1.8125 9.9375 C-0.39022067 6.3675734 -0.32325181 4.12146058 0 0 Z " fill="#38495E" transform="translate(720,386)"/>
<path d="M0 0 C-1.25942386 1.19959375 -2.53295286 2.38439443 -3.8125 3.5625 C-4.87404297 4.55443359 -4.87404297 4.55443359 -5.95703125 5.56640625 C-6.63121094 6.03949219 -7.30539062 6.51257813 -8 7 C-8.99 6.67 -9.98 6.34 -11 6 C-10.67 5.01 -10.34 4.02 -10 3 C-9.01 3 -8.02 3 -7 3 C-7 2.01 -7 1.02 -7 0 C-3.86650268 -1.04449911 -3.01031744 -0.93423645 0 0 Z " fill="#2A3B57" transform="translate(351,318)"/>
<path d="M0 0 C-2.87164566 2.70272533 -4.30991841 3.94791837 -8.3125 4.25 C-9.199375 4.1675 -10.08625 4.085 -11 4 C-10.1875 2.0625 -10.1875 2.0625 -9 0 C-5.52176885 -1.15941038 -3.54104422 -0.70820884 0 0 Z " fill="#273C50" transform="translate(414,292)"/>
<path d="M0 0 C1.21236328 0.01353516 1.21236328 0.01353516 2.44921875 0.02734375 C3.37154297 0.04474609 3.37154297 0.04474609 4.3125 0.0625 C4.3125 0.7225 4.3125 1.3825 4.3125 2.0625 C1.15743858 2.99869813 -1.65336502 3.1682123 -4.9375 3.125 C-5.82953125 3.11597656 -6.7215625 3.10695313 -7.640625 3.09765625 C-8.31609375 3.08605469 -8.9915625 3.07445312 -9.6875 3.0625 C-6.66074696 0.03574696 -4.08749979 -0.05923913 0 0 Z " fill="#293952" transform="translate(561.6875,747.9375)"/>
<path d="M0 0 C0.99 0.66 1.98 1.32 3 2 C0.36 4.31 -2.28 6.62 -5 9 C-5.66 7.68 -6.32 6.36 -7 5 C-4.69 3.35 -2.38 1.7 0 0 Z " fill="#2E425D" transform="translate(672,692)"/>
<path d="M0 0 C1.32 0.99 2.64 1.98 4 3 C3.67 3.66 3.34 4.32 3 5 C2.34 5 1.68 5 1 5 C1 5.66 1 6.32 1 7 C0.34 7 -0.32 7 -1 7 C-1.103125 7.61875 -1.20625 8.2375 -1.3125 8.875 C-2 11 -2 11 -5 13 C-4.54554036 11.58208592 -4.08625056 10.16571954 -3.625 8.75 C-3.24214844 7.56664062 -3.24214844 7.56664062 -2.8515625 6.359375 C-2.04826333 4.13372042 -1.10288338 2.09068328 0 0 Z " fill="#D2DDE5" transform="translate(732,615)"/>
<path d="M0 0 C0.99 0.33 1.98 0.66 3 1 C1.35 3.64 -0.3 6.28 -2 9 C-2.99 8.67 -3.98 8.34 -5 8 C-4.45773019 4.20411134 -2.79872437 2.52788007 0 0 Z " fill="#273850" transform="translate(413,492)"/>
<path d="M0 0 C0.99 0.33 1.98 0.66 3 1 C0.03 3.97 -2.94 6.94 -6 10 C-6.33 8.68 -6.66 7.36 -7 6 C-5.75 4.25 -5.75 4.25 -4 3 C-3.01 3 -2.02 3 -1 3 C-0.67 2.01 -0.34 1.02 0 0 Z " fill="#32455D" transform="translate(683,682)"/>
<path d="M0 0 C0 4.03066816 -1.67283027 5.78303008 -4 9 C-4.66 9.66 -5.32 10.32 -6 11 C-6.99 10.67 -7.98 10.34 -9 10 C-7.8758824 8.70756532 -6.75067408 7.41607925 -5.625 6.125 C-4.99851562 5.40570312 -4.37203125 4.68640625 -3.7265625 3.9453125 C-2.52573166 2.5923402 -1.2791655 1.2791655 0 0 Z " fill="#D5DFEB" transform="translate(391,541)"/>
<path d="M0 0 C1.02568631 3.12557112 1.00835842 4.783804 -0.25 7.8125 C-0.52972656 8.49957031 -0.80945313 9.18664062 -1.09765625 9.89453125 C-1.54431641 10.93673828 -1.54431641 10.93673828 -2 12 C-2.28746094 12.68449219 -2.57492187 13.36898438 -2.87109375 14.07421875 C-3.56924778 15.72106055 -4.28304871 17.36125419 -5 19 C-6.4650113 14.49628572 -4.86369593 11.41994594 -3.0625 7.25 C-2.77181641 6.55261719 -2.48113281 5.85523438 -2.18164062 5.13671875 C-1.46448297 3.42024305 -0.73356598 1.70952768 0 0 Z " fill="#C9D4E0" transform="translate(278,414)"/>
<path d="M0 0 C3.35111834 2.23407889 4.81553956 3.26215824 5.8125 7.25 C5.874375 8.1575 5.93625 9.065 6 10 C3.06799526 7.14723863 0.35684596 4.34920216 -2 1 C-1.34 0.67 -0.68 0.34 0 0 Z " fill="#344461" transform="translate(702,342)"/>
<path d="M0 0 C3.67230705 3.07999946 4.56802365 5.2482602 5 10 C4.01 10 3.02 10 2 10 C-1.07692308 4.58461538 -1.07692308 4.58461538 -0.6875 1.625 C-0.460625 1.08875 -0.23375 0.5525 0 0 Z " fill="#405368" transform="translate(524,432)"/>
<path d="M0 0 C3.96 0 7.92 0 12 0 C12.33 0.66 12.66 1.32 13 2 C11.58566794 2.2236337 10.16832382 2.42826476 8.75 2.625 C7.96109375 2.74101563 7.1721875 2.85703125 6.359375 2.9765625 C3.67847541 3.00319395 2.27305911 2.36592084 0 1 C0 0.67 0 0.34 0 0 Z " fill="#1A2D4A" transform="translate(470,763)"/>
<path d="M0 0 C0.66 0.99 1.32 1.98 2 3 C0.35889552 6.28220895 -2.69322988 6.74570789 -6 8 C-6.99 8 -7.98 8 -9 8 C-6.03 5.36 -3.06 2.72 0 0 Z " fill="#3D4C64" transform="translate(687,694)"/>
<path d="M0 0 C0.99 0.99 1.98 1.98 3 3 C1.8125 4.5625 1.8125 4.5625 0 6 C-2.625 5.8125 -2.625 5.8125 -5 5 C-5.33 4.34 -5.66 3.68 -6 3 C-5.01 3 -4.02 3 -3 3 C-1.31201173 1.56249809 -1.31201173 1.56249809 0 0 Z " fill="#F3FDF7" transform="translate(666,314)"/>
<path d="M0 0 C0.99 0 1.98 0 3 0 C3 1.32 3 2.64 3 4 C3.66 4 4.32 4 5 4 C4.625 6.4375 4.625 6.4375 4 9 C3.01 9.495 3.01 9.495 2 10 C2 9.34 2 8.68 2 8 C1.34 7.67 0.68 7.34 0 7 C0 4.69 0 2.38 0 0 Z " fill="#F6FBF9" transform="translate(356,702)"/>
<path d="M0 0 C0.99 0 1.98 0 3 0 C1.8141763 3.37503669 0.72426311 5.64722731 -2 8 C-2.66 7.34 -3.32 6.68 -4 6 C-4 5.01 -4 4.02 -4 3 C-3.01 2.67 -2.02 2.34 -1 2 C-0.67 1.34 -0.34 0.68 0 0 Z " fill="#2C3C5D" transform="translate(720,633)"/>
<path d="M0 0 C2.97246802 2.54782974 4.41535288 5.45340883 6 9 C6 9.66 6 10.32 6 11 C4.0625 10.6875 4.0625 10.6875 2 10 C1 7 1 7 2 4 C1.34 4 0.68 4 0 4 C0 2.68 0 1.36 0 0 Z " fill="#3F5167" transform="translate(528,514)"/>
<path d="M0 0 C0.33 0.66 0.66 1.32 1 2 C0.38125 2.0825 -0.2375 2.165 -0.875 2.25 C-1.57625 2.4975 -2.2775 2.745 -3 3 C-3.268125 3.66 -3.53625 4.32 -3.8125 5 C-4.204375 5.66 -4.59625 6.32 -5 7 C-8.625 7.75 -8.625 7.75 -12 8 C-9.69716746 5.45868642 -7.32686207 3.92889705 -4.3125 2.3125 C-3.50425781 1.87550781 -2.69601562 1.43851562 -1.86328125 0.98828125 C-1.24839844 0.66214844 -0.63351562 0.33601563 0 0 Z " fill="#384862" transform="translate(393,299)"/>
<path d="M0 0 C3.96 1.98 7.92 3.96 12 6 C8.30581799 7.231394 5.7943739 6.64432764 2 6 C2 4.68 2 3.36 2 2 C1.34 2 0.68 2 0 2 C0 1.34 0 0.68 0 0 Z " fill="#34455D" transform="translate(390,624)"/>
<path d="M0 0 C-1.49097658 3.7952131 -3.75700849 5.61042731 -7 8 C-6.62952882 5.25851328 -6.31412056 3.41406801 -4.625 1.1875 C-3 0 -3 0 0 0 Z " fill="#E2F0F7" transform="translate(654,476)"/>
<path d="M0 0 C2.32472205 2.85306797 3.7508258 5.54074837 5 9 C4.01 9.495 4.01 9.495 3 10 C1 7 1 7 1 4 C0.01 4 -0.98 4 -2 4 C-2 3.01 -2 2.02 -2 1 C-1.34 0.67 -0.68 0.34 0 0 Z " fill="#D8E6ED" transform="translate(519,548)"/>
<path d="M0 0 C2.64 1.98 5.28 3.96 8 6 C7.67 6.66 7.34 7.32 7 8 C5.1875 7.8125 5.1875 7.8125 3 7 C0 2.82142857 0 2.82142857 0 0 Z " fill="#384762" transform="translate(358,712)"/>
<path d="M0 0 C1.41687119 4.25061356 0.19320039 6.71851625 -1 11 C-1.66 10.67 -2.32 10.34 -3 10 C-3.36923077 4.58461538 -3.36923077 4.58461538 -1.5 1.625 C-1.005 1.08875 -0.51 0.5525 0 0 Z " fill="#293954" transform="translate(268,439)"/>
<path d="M0 0 C0.33 0.66 0.66 1.32 1 2 C1.66 2 2.32 2 3 2 C3 1.34 3 0.68 3 0 C3.66 0 4.32 0 5 0 C3.7508258 3.45925163 2.32472205 6.14693203 0 9 C0 6.03 0 3.06 0 0 Z " fill="#31425B" transform="translate(464,403)"/>
<path d="M0 0 C0.99 0.33 1.98 0.66 3 1 C0.525 5.455 0.525 5.455 -2 10 C-2.33 10 -2.66 10 -3 10 C-3.125 4.25 -3.125 4.25 -2 2 C-1.34 2 -0.68 2 0 2 C0 1.34 0 0.68 0 0 Z " fill="#2E405C" transform="translate(292,382)"/>
<path d="M0 0 C5.875 3.625 5.875 3.625 7 7 C3.62496331 5.8141763 1.35277269 4.72426311 -1 2 C-0.67 1.34 -0.34 0.68 0 0 Z " fill="#2B3D5A" transform="translate(391,720)"/>
<path d="M0 0 C-1.04874998 2.62187494 -1.64931313 3.79371361 -4.125 5.25 C-4.74375 5.4975 -5.3625 5.745 -6 6 C-6.33 4.68 -6.66 3.36 -7 2 C-4.35261084 0.5393715 -3.10551666 0 0 0 Z " fill="#E1EBF5" transform="translate(672,706)"/>
<path d="M0 0 C0 3.99191204 -1.25498212 5.18079244 -4 8 C-6.75 8.8125 -6.75 8.8125 -9 9 C-8.67 8.34 -8.34 7.68 -8 7 C-7.34 7 -6.68 7 -6 7 C-6 6.34 -6 5.68 -6 5 C-4.04072937 3.2856382 -2.04119788 1.61594832 0 0 Z " fill="#D6DFE9" transform="translate(681,687)"/>
<path d="M0 0 C0 3 0 3 -1 6 C-1.66 6 -2.32 6 -3 6 C-3.33 6.99 -3.66 7.98 -4 9 C-4.99 8.67 -5.98 8.34 -7 8 C-6.02133662 6.85373678 -5.04205413 5.70800212 -4.0625 4.5625 C-3.51722656 3.92441406 -2.97195313 3.28632812 -2.41015625 2.62890625 C-1.63204305 1.73008851 -0.84063472 0.84063472 0 0 Z " fill="#38415D" transform="translate(695,686)"/>
<path d="M0 0 C0.66 0.99 1.32 1.98 2 3 C-0.31 5.64 -2.62 8.28 -5 11 C-5 7.58678765 -4.33132534 6.60527115 -2.5 3.8125 C-2.0359375 3.09707031 -1.571875 2.38164062 -1.09375 1.64453125 C-0.7328125 1.10183594 -0.371875 0.55914062 0 0 Z " fill="#CFD9E2" transform="translate(449,439)"/>
<path d="M0 0 C3.99500618 1.3697164 6.80009492 3.25722422 10 6 C7.8125 6.3125 7.8125 6.3125 5 6 C2.1875 3.5625 2.1875 3.5625 0 1 C0 0.67 0 0.34 0 0 Z " fill="#D9DFE9" transform="translate(640,436)"/>
<path d="M0 0 C0.33 0.99 0.66 1.98 1 3 C-1.64 2.67 -4.28 2.34 -7 2 C-7 1.34 -7 0.68 -7 0 C-4.3333581 -1.33332095 -2.83319697 -0.67102033 0 0 Z " fill="#1E324E" transform="translate(643,433)"/>
<path d="M0 0 C2.32472205 2.85306797 3.7508258 5.54074837 5 9 C0.23634558 6.5571003 0.23634558 6.5571003 -0.875 3.9375 C-1 2 -1 2 0 0 Z " fill="#CAD5E6" transform="translate(517,423)"/>
<path d="M0 0 C1.65 0 3.3 0 5 0 C5.625 2.375 5.625 2.375 6 5 C5.34 5.66 4.68 6.32 4 7 C2.02 3.535 2.02 3.535 0 0 Z " fill="#314165" transform="translate(730,384)"/>
<path d="M0 0 C0 0.66 0 1.32 0 2 C-0.99 2 -1.98 2 -3 2 C-3 2.66 -3 3.32 -3 4 C-6 6 -6 6 -8.1875 5.625 C-8.785625 5.41875 -9.38375 5.2125 -10 5 C-7.30495181 2.30495181 -3.91639523 0 0 0 Z " fill="#46536C" transform="translate(626,737)"/>
<path d="M0 0 C1.98 0.99 1.98 0.99 4 2 C3.01 2.495 3.01 2.495 2 3 C1.34 2.67 0.68 2.34 0 2 C0 1.34 0 0.68 0 0 Z M-2.875 1.875 C-1.92625 1.91625 -0.9775 1.9575 0 2 C-0.33 2.99 -0.66 3.98 -1 5 C-3.31 4.67 -5.62 4.34 -8 4 C-6 2 -6 2 -2.875 1.875 Z " fill="#CDD8E4" transform="translate(421,631)"/>
<path d="M0 0 C5.94 1.485 5.94 1.485 12 3 C9 5 9 5 5.8125 4.625 C4.884375 4.41875 3.95625 4.2125 3 4 C3 3.34 3 2.68 3 2 C2.01 1.67 1.02 1.34 0 1 C0 0.67 0 0.34 0 0 Z " fill="#32445C" transform="translate(604,630)"/>
<path d="M0 0 C2.96175123 0.61277612 4.38058783 1.25372522 7 3 C7.6875 5.625 7.6875 5.625 8 8 C6.85073734 7.04578192 5.70569459 6.08647955 4.5625 5.125 C3.92441406 4.59132813 3.28632812 4.05765625 2.62890625 3.5078125 C1 2 1 2 0 0 Z " fill="#354259" transform="translate(617,610)"/>
<path d="M0 0 C0.33 0.99 0.66 1.98 1 3 C1.66 3 2.32 3 3 3 C3 5.97 3 8.94 3 12 C0.97649676 8.96474514 0.67875982 7.80573798 0.375 4.3125 C0.30023437 3.50425781 0.22546875 2.69601562 0.1484375 1.86328125 C0.09945312 1.24839844 0.05046875 0.63351562 0 0 Z " fill="#D7E5EC" transform="translate(616,557)"/>
<path d="M0 0 C2.32472205 2.85306797 3.7508258 5.54074837 5 9 C3.68 9.33 2.36 9.66 1 10 C1 7.69 1 5.38 1 3 C0.34 2.67 -0.32 2.34 -1 2 C-0.67 1.34 -0.34 0.68 0 0 Z " fill="#D2DAE9" transform="translate(511,533)"/>
<path d="M0 0 C0.33 0 0.66 0 1 0 C1.25 2.8125 1.25 2.8125 1 6 C-1 7.875 -1 7.875 -3 9 C-3 5 -3 5 -2 3 C-1.34 3 -0.68 3 0 3 C0 2.01 0 1.02 0 0 Z " fill="#203547" transform="translate(295,403)"/>
<path d="M0 0 C2.1875 0.3125 2.1875 0.3125 4 1 C3 4 3 4 0.9375 5.1875 C0.298125 5.455625 -0.34125 5.72375 -1 6 C-1 5.34 -1 4.68 -1 4 C-1.66 3.67 -2.32 3.34 -3 3 C-1.75 1.4375 -1.75 1.4375 0 0 Z " fill="#2B3F5B" transform="translate(371,297)"/>
<path d="M0 0 C1.98 0.66 3.96 1.32 6 2 C3.94766315 4.2477975 2.99332739 5.0022242 0 6 C-0.38218767 4.34385343 -0.71395102 2.67542976 -1 1 C-0.67 0.67 -0.34 0.34 0 0 Z " fill="#2B3E5C" transform="translate(414,745)"/>
<path d="M0 0 C-0.66 1.32 -1.32 2.64 -2 4 C-4.97 3.505 -4.97 3.505 -8 3 C-5.36657694 0.36657694 -3.69534435 0 0 0 Z " fill="#3D4D6C" transform="translate(612,744)"/>
<path d="M0 0 C0.66 0 1.32 0 2 0 C2 0.66 2 1.32 2 2 C2.99 1.67 3.98 1.34 5 1 C5 3.64 5 6.28 5 9 C2.67527795 6.14693203 1.2491742 3.45925163 0 0 Z " fill="#D7E6ED" transform="translate(283,619)"/>
<path d="M0 0 C0.66 0 1.32 0 2 0 C1.67 4.29 1.34 8.58 1 13 C0.67 13 0.34 13 0 13 C-0.19466332 11.20909747 -0.38051213 9.41723495 -0.5625 7.625 C-0.66691406 6.62726563 -0.77132813 5.62953125 -0.87890625 4.6015625 C-1 2 -1 2 0 0 Z " fill="#35455A" transform="translate(260,471)"/>
<path d="M0 0 C-0.33 0.99 -0.66 1.98 -1 3 C-1.66 3 -2.32 3 -3 3 C-3.33 3.66 -3.66 4.32 -4 5 C-5.32 4.34 -6.64 3.68 -8 3 C-4.93882432 0.37613513 -4.26826873 0 0 0 Z " fill="#D5DCE8" transform="translate(482,395)"/>
<path d="M0 0 C2.31 1.98 4.62 3.96 7 6 C5.68 6.33 4.36 6.66 3 7 C0 2.25 0 2.25 0 0 Z " fill="#D3DAE1" transform="translate(689,332)"/>
<path d="M0 0 C0.99 0 1.98 0 3 0 C2.4375 1.875 2.4375 1.875 1 4 C-2.625 5.25 -2.625 5.25 -6 6 C-4 4 -2 2 0 0 Z " fill="#D3DEE4" transform="translate(345,322)"/>
<path d="M0 0 C-2.71182212 2.60334924 -3.89133813 2.99456691 -7.75 3.1875 C-8.8225 3.125625 -9.895 3.06375 -11 3 C-9.66666667 2.33333333 -8.33333333 1.66666667 -7 1 C-6.319375 0.608125 -5.63875 0.21625 -4.9375 -0.1875 C-3 -1 -3 -1 0 0 Z " fill="#3B4B65" transform="translate(427,285)"/>
<path d="M0 0 C4.27786748 0.49360009 7.09567131 1.04783565 11 3 C7.7 3 4.4 3 1 3 C0.67 2.01 0.34 1.02 0 0 Z " fill="#D4DFEC" transform="translate(562,265)"/>
<path d="M0 0 C0.33 1.32 0.66 2.64 1 4 C-1.31 3.34 -3.62 2.68 -6 2 C-6 1.34 -6 0.68 -6 0 C-3.50907189 -1.24546405 -2.58919267 -0.7767578 0 0 Z " fill="#2C3A53" transform="translate(416,732)"/>
<path d="M0 0 C2.875 -0.125 2.875 -0.125 6 0 C6.66 0.66 7.32 1.32 8 2 C5.69 2.66 3.38 3.32 1 4 C0.67 2.68 0.34 1.36 0 0 Z " fill="#263854" transform="translate(609,730)"/>
<path d="M0 0 C0.66 0.33 1.32 0.66 2 1 C1.2575 1.680625 1.2575 1.680625 0.5 2.375 C-1.22609337 3.87635519 -1.22609337 3.87635519 -1 6 C-2.32 6.33 -3.64 6.66 -5 7 C-5 5.68 -5 4.36 -5 3 C-2.625 1.1875 -2.625 1.1875 0 0 Z " fill="#DCEAEE" transform="translate(644,716)"/>
<path d="M0 0 C2.64465038 3.1254959 3.84414715 6.08788267 5 10 C4.01 9.67 3.02 9.34 2 9 C2 7.68 2 6.36 2 5 C1.01 4.67 0.02 4.34 -1 4 C-0.67 2.68 -0.34 1.36 0 0 Z " fill="#C4D2DD" transform="translate(538,463)"/>
<path d="M0 0 C0.66 0 1.32 0 2 0 C1.01 3.3 0.02 6.6 -1 10 C-1.66 9.34 -2.32 8.68 -3 8 C-2.64700993 4.55834679 -1.95418308 2.93127462 0 0 Z " fill="#3E4E64" transform="translate(607,446)"/>
<path d="M0 0 C0.66 1.32 1.32 2.64 2 4 C1.34 4 0.68 4 0 4 C0.33 4.99 0.66 5.98 1 7 C0.0625 9.6875 0.0625 9.6875 -1 12 C-1.66 12 -2.32 12 -3 12 C-2.01 8.04 -1.02 4.08 0 0 Z " fill="#3D4D69" transform="translate(282,429)"/>
<path d="M0 0 C1.98 0.495 1.98 0.495 4 1 C2.515 4.96 2.515 4.96 1 9 C-0.61949011 6.42786866 -1.04408751 5.32330841 -0.625 2.25 C-0.41875 1.5075 -0.2125 0.765 0 0 Z " fill="#36425C" transform="translate(276,411)"/>
<path d="M0 0 C1.32 0 2.64 0 4 0 C4 1.32 4 2.64 4 4 C4.66 4 5.32 4 6 4 C5.67 4.99 5.34 5.98 5 7 C2.47411298 4.63707344 1.11179163 3.33537489 0 0 Z " fill="#25394F" transform="translate(723,372)"/>
<path d="M0 0 C-3.51187196 2.40814077 -5.72656908 3.36629408 -10 3 C-10 2.34 -10 1.68 -10 1 C-3.375 -1.125 -3.375 -1.125 0 0 Z " fill="#1C304A" transform="translate(459,276)"/>
<path d="M0 0 C0.66 0.33 1.32 0.66 2 1 C-0.25 3.5625 -0.25 3.5625 -3 6 C-4.32 5.67 -5.64 5.34 -7 5 C-4.69 3.35 -2.38 1.7 0 0 Z " fill="#D4DBE6" transform="translate(657,707)"/>
<path d="M0 0 C0.66 0.33 1.32 0.66 2 1 C1.34 3.97 0.68 6.94 0 10 C-0.33 10 -0.66 10 -1 10 C-2.25 3.375 -2.25 3.375 0 0 Z " fill="#2A3F59" transform="translate(746,571)"/>
<path d="M0 0 C0.66 0.33 1.32 0.66 2 1 C2 1.66 2 2.32 2 3 C0.37373596 4.38232443 -1.2925002 5.71937515 -3 7 C-3.33 6.01 -3.66 5.02 -4 4 C-2.68 2.68 -1.36 1.36 0 0 Z " fill="#172A4A" transform="translate(414,568)"/>
<path d="M0 0 C2.35953094 2.35953094 2.49141413 3.77895617 3 7 C2.01 7.495 2.01 7.495 1 8 C-2 3.25 -2 3.25 -2 1 C-1.34 0.67 -0.68 0.34 0 0 Z " fill="#303E5A" transform="translate(571,520)"/>
<path d="M0 0 C-0.33 0.99 -0.66 1.98 -1 3 C-5.29 2.67 -9.58 2.34 -14 2 C-14 1.67 -14 1.34 -14 1 C-12.04175306 0.83232136 -10.08339945 0.66588795 -8.125 0.5 C-6.48917969 0.36078125 -6.48917969 0.36078125 -4.8203125 0.21875 C-3.21670436 0.09437042 -1.60842449 0 0 0 Z " fill="#57677A" transform="translate(642,487)"/>
<path d="M0 0 C1.9375 1.125 1.9375 1.125 4 3 C4.75 6.1875 4.75 6.1875 5 9 C0.125 4.375 0.125 4.375 -1 1 C-0.67 0.67 -0.34 0.34 0 0 Z " fill="#CFE2EA" transform="translate(609,473)"/>
<path d="M0 0 C0.66 0.66 1.32 1.32 2 2 C0.68 4.31 -0.64 6.62 -2 9 C-2.66 8.34 -3.32 7.68 -4 7 C-3.34 5.35 -2.68 3.7 -2 2 C-1.34 2 -0.68 2 0 2 C0 1.34 0 0.68 0 0 Z " fill="#2B3E56" transform="translate(445,441)"/>
<path d="M0 0 C0.66 0 1.32 0 2 0 C1.6875 2.375 1.6875 2.375 1 5 C0.01 5.66 -0.98 6.32 -2 7 C-1.125 1.125 -1.125 1.125 0 0 Z " fill="#3B4A64" transform="translate(290,411)"/>
<path d="M0 0 C0 0.66 0 1.32 0 2 C0.66 2.33 1.32 2.66 2 3 C2 3.66 2 4.32 2 5 C-0.02045442 4.39816251 -2.02111039 3.72693904 -4 3 C-4.33 2.34 -4.66 1.68 -5 1 C-2 0 -2 0 0 0 Z " fill="#405369" transform="translate(629,284)"/>
<path d="M0 0 C7.42857143 -0.28571429 7.42857143 -0.28571429 11 2 C6.70700357 3.26264601 4.12168689 2.62950412 0 1 C0 0.67 0 0.34 0 0 Z " fill="#37475F" transform="translate(567,276)"/>
<path d="M0 0 C3.3 0.33 6.6 0.66 10 1 C10 1.33 10 1.66 10 2 C6.37 2.33 2.74 2.66 -1 3 C-0.67 2.01 -0.34 1.02 0 0 Z " fill="#384C65" transform="translate(462,261)"/>
<path d="M0 0 C1.98 0 3.96 0 6 0 C6 0.99 6 1.98 6 3 C3.69 2.67 1.38 2.34 -1 2 C-0.67 1.34 -0.34 0.68 0 0 Z " fill="#1F3451" transform="translate(435,754)"/>
<path d="M0 0 C1.32 0.66 2.64 1.32 4 2 C-2.28571429 4.42857143 -2.28571429 4.42857143 -6 3 C-5 2 -5 2 -2.4375 1.9375 C-1.2309375 1.9684375 -1.2309375 1.9684375 0 2 C0 1.34 0 0.68 0 0 Z " fill="#384A5F" transform="translate(576,744)"/>
<path d="M0 0 C0.66 0 1.32 0 2 0 C2 0.66 2 1.32 2 2 C2.66 2 3.32 2 4 2 C4.33 1.34 4.66 0.68 5 0 C5.66 1.65 6.32 3.3 7 5 C1.25 3.25 1.25 3.25 -1 1 C-0.67 0.67 -0.34 0.34 0 0 Z " fill="#CCD3D9" transform="translate(407,740)"/>
<path d="M0 0 C4.875 1.75 4.875 1.75 6 4 C3.125 4.125 3.125 4.125 0 4 C-0.66 3.34 -1.32 2.68 -2 2 C-1.34 2 -0.68 2 0 2 C0 1.34 0 0.68 0 0 Z " fill="#DDE5EC" transform="translate(378,716)"/>
<path d="M0 0 C0 0.99 0 1.98 0 3 C-4.75 2.25 -4.75 2.25 -7 0 C-3.98968256 -0.93423645 -3.13349732 -1.04449911 0 0 Z " fill="#D7E5EA" transform="translate(407,629)"/>
<path d="M0 0 C1.32 0 2.64 0 4 0 C4 0.66 4 1.32 4 2 C5.32 2.66 6.64 3.32 8 4 C4.26512223 3.5020163 2.18762365 3.12508244 -1 1 C-0.67 0.67 -0.34 0.34 0 0 Z " fill="#394967" transform="translate(640,625)"/>
<path d="M0 0 C2.15377564 2.62198774 3.40072174 4.64404172 4 8 C3.01 8.33 2.02 8.66 1 9 C0.67 6.03 0.34 3.06 0 0 Z " fill="#D0DDEB" transform="translate(292,617)"/>
<path d="M0 0 C1.32 0.33 2.64 0.66 4 1 C4.33 2.65 4.66 4.3 5 6 C4.01 6.495 4.01 6.495 3 7 C2.01 4.69 1.02 2.38 0 0 Z " fill="#243455" transform="translate(407,612)"/>
<path d="M0 0 C1.2380014 3.57644848 0.74926071 6.33694766 0 10 C-0.66 10 -1.32 10 -2 10 C-1.125 2.25 -1.125 2.25 0 0 Z " fill="#CBD6E0" transform="translate(374,564)"/>
<path d="M0 0 C2.875 -0.1875 2.875 -0.1875 6 0 C6.66 0.99 7.32 1.98 8 3 C5.125 3.1875 5.125 3.1875 2 3 C1.34 2.01 0.68 1.02 0 0 Z " fill="#1F304F" transform="translate(637,508)"/>
<path d="M0 0 C2.35953094 2.35953094 2.49141413 3.77895617 3 7 C2.01 7.495 2.01 7.495 1 8 C0.01 6.02 -0.98 4.04 -2 2 C-1.34 2 -0.68 2 0 2 C0 1.34 0 0.68 0 0 Z " fill="#2D3E58" transform="translate(558,495)"/>
<path d="M0 0 C0.66 0.99 1.32 1.98 2 3 C0.625 5 0.625 5 -1 7 C-1.66 7 -2.32 7 -3 7 C-2.38722388 4.03824877 -1.74627478 2.61941217 0 0 Z " fill="#263A50" transform="translate(418,484)"/>
<path d="M0 0 C2 2 2 2 2.125 5.125 C2.08375 6.07375 2.0425 7.0225 2 8 C1.01 8.495 1.01 8.495 0 9 C-1.125 2.25 -1.125 2.25 0 0 Z " fill="#1C2D4B" transform="translate(763,467)"/>
<path d="M0 0 C0.66 0.33 1.32 0.66 2 1 C-0.97 3.475 -0.97 3.475 -4 6 C-4.33 5.34 -4.66 4.68 -5 4 C-3 1 -3 1 0 0 Z " fill="#D5DCEA" transform="translate(358,321)"/>
<path d="M0 0 C-0.33 0.99 -0.66 1.98 -1 3 C-3.875 3.625 -3.875 3.625 -7 4 C-7.66 3.34 -8.32 2.68 -9 2 C-3.375 0 -3.375 0 0 0 Z " fill="#38475F" transform="translate(435,281)"/>
<path d="M0 0 C2.97 0.495 2.97 0.495 6 1 C5.67 1.99 5.34 2.98 5 4 C3.35 3.67 1.7 3.34 0 3 C0 2.01 0 1.02 0 0 Z " fill="#1E354E" transform="translate(584,280)"/>
<path d="M0 0 C2.31 0.66 4.62 1.32 7 2 C7 2.66 7 3.32 7 4 C4.03 3.505 4.03 3.505 1 3 C0.67 2.01 0.34 1.02 0 0 Z " fill="#2E465E" transform="translate(585,268)"/>
<path d="M0 0 C-4.30769231 3.07692308 -4.30769231 3.07692308 -7.8125 2.6875 C-8.534375 2.460625 -9.25625 2.23375 -10 2 C-3.75 -1.125 -3.75 -1.125 0 0 Z " fill="#C4D0DD" transform="translate(446,269)"/>
</svg>
